<svg xmlns="http://www.w3.org/2000/svg" xmlns:xlink="http://www.w3.org/1999/xlink" width="1920" zoomAndPan="magnify" viewBox="0 0 1440 809.999993" height="1080" preserveAspectRatio="xMidYMid meet" version="1.0"><defs><clipPath id="e5b7dc32b5"><path d="M 81 155 L 450 155 L 450 654 L 81 654 Z M 81 155 " clip-rule="nonzero"/></clipPath><clipPath id="2308ce5ddf"><path d="M 905 156 L 1359 156 L 1359 654 L 905 654 Z M 905 156 " clip-rule="nonzero"/></clipPath></defs><g clip-path="url(#e5b7dc32b5)"><path fill="#c98a0e" d="M 370.304688 297.34375 C 370.535156 297.34375 374.453125 297.378906 374.453125 297.378906 C 388.164062 297.378906 400.816406 289.210938 410.988281 272.949219 C 415.054688 266.851562 443.535156 214.003906 446.246094 207.90625 C 459.808594 175.382812 431.328125 155.734375 409.632812 155.734375 L 293.003906 155.734375 C 292.523438 155.734375 291.941406 155.722656 291.265625 155.710938 C 280.589844 155.539062 247.167969 154.992188 229.945312 186.222656 C 220.171875 205.3125 195.265625 248.246094 176.199219 281.117188 C 166.160156 298.414062 157.742188 312.925781 154.003906 319.703125 C 134.339844 357.644531 152.644531 392.878906 183.835938 411.851562 C 192.972656 417.9375 204.023438 425.253906 216.191406 433.308594 L 216.21875 433.328125 C 231.136719 443.203125 247.726562 454.1875 264.527344 465.378906 C 264.527344 465.378906 250.964844 482.320312 234.691406 471.476562 C 232.65625 470.121094 214.175781 458.09375 195.695312 446.0625 L 195.6875 446.058594 L 195.632812 446.023438 C 177.179688 434.011719 158.746094 422.011719 156.714844 420.660156 C 141.796875 411.171875 108.574219 402.367188 87.550781 430.144531 C 86.710938 431.265625 81.808594 439.109375 75.824219 448.691406 C 67.335938 462.273438 56.667969 479.347656 52.292969 485.707031 C 27.207031 524.328125 27.882812 562.949219 57.039062 585.984375 C 63.820312 592.082031 91.621094 619.863281 97.722656 625.960938 C 99.003906 627.242188 100.21875 628.460938 101.371094 629.621094 L 101.378906 629.625 L 101.390625 629.636719 C 121.632812 649.964844 124.082031 652.421875 158.070312 653.0625 L 264.527344 653.0625 C 285.546875 653.742188 296.394531 649.675781 307.921875 636.800781 C 331.308594 595.90625 379.453125 504.632812 411.203125 444.441406 L 411.207031 444.4375 L 411.210938 444.425781 L 411.21875 444.417969 C 427.328125 413.875 439.21875 391.335938 441.5 387.460938 C 451.671875 371.199219 445.570312 354.9375 433.363281 347.484375 C 430.992188 345.789062 426.585938 342.742188 422.183594 339.695312 L 422.175781 339.691406 C 417.769531 336.644531 413.359375 333.59375 410.988281 331.898438 L 410.113281 331.261719 C 402.429688 325.644531 398.464844 322.75 394.03125 321.261719 C 389.308594 319.675781 384.050781 319.683594 373.199219 319.699219 L 373.191406 319.699219 C 372.066406 319.699219 370.878906 319.703125 369.625 319.703125 L 342.503906 319.703125 C 342.359375 319.703125 342.214844 319.703125 342.0625 319.707031 L 341.5625 319.710938 C 337.261719 319.757812 329.710938 319.84375 322.160156 312.925781 C 318.09375 308.863281 316.058594 303.441406 315.378906 297.34375 Z M 370.304688 297.34375 " fill-opacity="1" fill-rule="nonzero"/></g><path fill="#c98a0e" d="M 453.703125 331.886719 C 436.75 321.722656 424.546875 296.652344 437.429688 272.9375 C 443.53125 260.0625 464.550781 221.441406 478.792969 196.375 C 495.066406 168.59375 502.523438 157.074219 541.171875 157.074219 L 659.15625 157.074219 C 702.550781 157.074219 703.90625 188.242188 703.90625 200.4375 L 703.90625 314.945312 C 703.90625 337.304688 673.394531 361.699219 636.777344 333.242188 C 634.746094 331.886719 610.347656 313.601562 594.074219 301.40625 L 594.0625 301.394531 C 590.957031 299.179688 581.46875 291.742188 574.515625 286.296875 C 570.84375 283.417969 567.875 281.09375 566.9375 280.390625 C 564.90625 278.359375 555.414062 303.429688 576.433594 318.335938 C 580.839844 321.722656 588.128906 327.480469 595.417969 333.238281 C 602.707031 339 609.996094 344.761719 614.402344 348.148438 C 637.457031 363.730469 636.777344 393.542969 616.4375 407.773438 C 609.65625 413.195312 592.027344 424.035156 583.214844 429.457031 C 554.734375 445.039062 564.90625 470.785156 565.582031 470.109375 C 568.257812 467.769531 586.917969 456.046875 606.042969 444.027344 C 625.714844 431.667969 645.878906 418.996094 649.664062 415.902344 C 671.359375 400.320312 705.941406 409.128906 704.585938 438.941406 L 704.585938 596.136719 C 705.941406 633.402344 693.058594 653.050781 653.054688 654.40625 C 649.441406 655.007812 447.78125 654.542969 399.054688 654.429688 L 398.96875 654.429688 C 392.832031 654.414062 389.140625 654.40625 388.609375 654.40625 C 351.316406 654.40625 341.144531 617.140625 358.773438 587.328125 C 387.332031 541.269531 427.367188 462.285156 450.976562 415.707031 L 450.976562 415.703125 L 450.980469 415.695312 C 459.320312 399.242188 465.613281 386.832031 468.621094 381.347656 C 476.078125 367.796875 482.859375 349.503906 463.195312 337.984375 C 452.757812 331.507812 457.605469 334.390625 460.800781 336.289062 L 460.804688 336.292969 C 463.625 337.96875 465.148438 338.875 453.703125 331.886719 Z M 453.703125 331.886719 " fill-opacity="1" fill-rule="nonzero"/><path fill="#c98a0e" d="M 726.292969 192.300781 C 726.292969 195.011719 726.292969 608.328125 726.972656 612.390625 C 727.648438 638.816406 748.667969 653.722656 775.113281 653.722656 L 868.6875 653.722656 C 892.417969 653.046875 899.199219 638.816406 897.84375 624.585938 C 897.84375 620.523438 895.128906 590.710938 894.453125 587.320312 C 894.417969 587.1875 894.386719 587.054688 894.351562 586.921875 C 894.324219 586.808594 894.296875 586.695312 894.269531 586.582031 C 894.15625 586.117188 894.042969 585.652344 893.929688 585.183594 C 891.472656 574.984375 888.917969 564.386719 868.007812 556.152344 C 851.054688 550.054688 820.542969 541.246094 817.832031 540.570312 C 807.660156 537.183594 809.695312 524.308594 809.695312 524.308594 L 979.210938 524.308594 C 979.210938 524.308594 981.925781 535.148438 971.074219 541.246094 C 967.285156 543.457031 961.289062 545.519531 954.515625 547.847656 C 946.757812 550.515625 937.996094 553.527344 930.390625 557.507812 C 918.183594 563.605469 915.472656 579.191406 916.828125 588.675781 C 917.769531 594.792969 919.039062 606.136719 919.953125 614.3125 C 920.355469 617.914062 920.6875 620.898438 920.898438 622.554688 C 922.929688 636.785156 933.101562 653.046875 955.480469 653.722656 C 973.789062 654.398438 1048.371094 654.398438 1063.972656 654.398438 C 1091.09375 654.398438 1107.367188 621.878906 1090.414062 592.742188 C 1074.152344 565.667969 894.15625 218.785156 884.3125 199.816406 L 884.28125 199.753906 C 870.042969 173.332031 851.734375 158.425781 827.324219 157.070312 L 769.691406 157.070312 C 741.210938 156.390625 727.648438 171.976562 726.292969 192.300781 Z M 726.292969 192.300781 " fill-opacity="1" fill-rule="nonzero"/><g clip-path="url(#2308ce5ddf)"><path fill="#c98a0e" d="M 910.042969 200.453125 C 919.449219 218.9375 958.71875 293.191406 1000.09375 371.441406 L 1000.101562 371.453125 C 1048.214844 462.433594 1099.1875 558.8125 1109.394531 579.210938 L 1112.109375 585.308594 L 1112.109375 586.667969 C 1113.730469 589.3125 1115.914062 593.730469 1118.5 598.964844 C 1124.515625 611.164062 1132.71875 627.800781 1141.257812 636.804688 C 1152.789062 649.679688 1163.640625 653.746094 1184.652344 653.066406 L 1282.972656 653.066406 C 1316.96875 652.425781 1319.417969 649.96875 1339.660156 629.640625 C 1340.816406 628.472656 1342.039062 627.25 1343.328125 625.964844 C 1349.425781 619.867188 1377.226562 592.085938 1384.6875 585.988281 C 1413.164062 562.953125 1413.84375 524.332031 1388.75 485.707031 C 1384.386719 479.355469 1373.714844 462.289062 1365.234375 448.707031 L 1365.226562 448.695312 C 1359.238281 439.113281 1354.332031 431.269531 1353.492188 430.148438 C 1332.476562 402.367188 1299.921875 411.175781 1284.332031 420.664062 C 1282.292969 422.019531 1266.699219 432.179688 1249.75 443.023438 L 1245.6875 445.734375 C 1234.15625 452.507812 1222.628906 451.152344 1217.886719 447.089844 C 1213.132812 443.699219 1209.75 438.28125 1208.390625 426.761719 C 1205.625 409.058594 1200.589844 382.203125 1194.964844 352.148438 L 1194.964844 352.144531 C 1186.808594 308.589844 1177.394531 258.316406 1171.773438 219.425781 C 1164.316406 163.867188 1127.023438 156.414062 1106 156.414062 C 1093.800781 157.089844 944.621094 157.089844 934.453125 157.089844 C 912.753906 157.769531 897.839844 180.128906 910.042969 200.453125 Z M 910.042969 200.453125 " fill-opacity="1" fill-rule="nonzero"/></g><path fill="#c98a0e" d="M 1242.292969 335.402344 L 1242.292969 380.121094 L 1249.75 380.121094 L 1249.75 361.148438 L 1254.5 361.148438 C 1256.527344 361.148438 1258.566406 361.828125 1259.921875 362.503906 C 1261.957031 363.859375 1264.664062 367.925781 1267.378906 373.34375 L 1271.453125 380.121094 L 1280.945312 380.121094 L 1274.835938 371.3125 C 1273.453125 368.539062 1271.742188 366.394531 1270.378906 364.667969 C 1269.734375 363.863281 1269.167969 363.148438 1268.738281 362.503906 C 1268.28125 362.277344 1267.835938 361.976562 1267.378906 361.675781 C 1266.476562 361.074219 1265.574219 360.472656 1264.664062 360.472656 C 1268.738281 359.792969 1271.453125 358.4375 1274.15625 355.730469 C 1276.195312 353.695312 1277.550781 350.984375 1277.550781 347.597656 C 1277.550781 344.886719 1276.875 342.855469 1275.515625 340.820312 C 1274.15625 338.789062 1272.128906 337.433594 1269.414062 336.078125 C 1267.378906 335.402344 1263.316406 335.402344 1257.886719 335.402344 Z M 1258.566406 355.050781 L 1249.75 355.050781 L 1249.75 341.5 L 1257.886719 341.5 C 1261.957031 341.5 1263.984375 341.5 1265.34375 342.175781 C 1266.699219 342.855469 1268.058594 343.53125 1268.738281 344.210938 C 1269.414062 345.566406 1270.09375 346.921875 1270.09375 348.277344 C 1270.09375 350.308594 1268.738281 351.664062 1267.378906 353.019531 C 1266.023438 354.375 1263.316406 355.050781 1258.566406 355.050781 Z M 1258.566406 355.050781 " fill-opacity="1" fill-rule="evenodd"/><path fill="#c98a0e" d="M 1281.617188 320.496094 C 1274.835938 316.429688 1268.058594 315.074219 1261.28125 315.074219 C 1253.824219 315.074219 1247.035156 316.429688 1240.257812 320.496094 C 1233.476562 323.882812 1228.058594 329.304688 1224.664062 336.078125 C 1220.589844 342.855469 1218.5625 349.628906 1218.5625 357.082031 C 1218.5625 364.535156 1220.589844 371.3125 1224.664062 378.089844 C 1228.058594 384.863281 1233.476562 390.285156 1240.257812 393.671875 C 1247.035156 397.738281 1253.824219 399.09375 1261.28125 399.09375 C 1268.058594 399.09375 1275.515625 397.738281 1282.292969 393.671875 C 1289.082031 390.285156 1293.824219 384.863281 1297.894531 378.089844 C 1301.28125 371.3125 1303.316406 364.535156 1303.316406 357.082031 C 1303.316406 349.628906 1301.28125 342.855469 1297.894531 336.078125 C 1293.824219 329.304688 1288.402344 323.882812 1281.617188 320.496094 Z M 1243.648438 326.59375 C 1249.070312 323.207031 1255.171875 321.851562 1261.28125 321.851562 C 1266.699219 321.851562 1272.800781 323.207031 1278.230469 326.59375 C 1283.652344 329.304688 1288.402344 334.046875 1291.789062 339.46875 C 1294.503906 344.886719 1296.539062 350.984375 1296.539062 357.082031 C 1296.539062 363.179688 1294.503906 369.28125 1291.789062 374.699219 C 1288.402344 380.121094 1284.332031 384.1875 1278.230469 387.574219 C 1272.800781 390.960938 1267.378906 392.316406 1261.28125 392.316406 C 1255.171875 392.316406 1249.070312 390.960938 1243.648438 387.574219 C 1238.21875 384.1875 1233.476562 380.121094 1230.761719 374.699219 C 1227.378906 369.28125 1226.019531 363.179688 1226.019531 357.082031 C 1226.019531 350.984375 1227.378906 344.886719 1230.761719 339.46875 C 1233.476562 334.046875 1238.21875 329.304688 1243.648438 326.59375 Z M 1243.648438 326.59375 " fill-opacity="1" fill-rule="evenodd"/></svg>