<svg xmlns="http://www.w3.org/2000/svg" xmlns:xlink="http://www.w3.org/1999/xlink" width="1920" zoomAndPan="magnify" viewBox="0 0 1440 809.999993" height="1080" preserveAspectRatio="xMidYMid meet" version="1.0"><defs><g/><clipPath id="c75227662f"><rect x="0" width="1271" y="0" height="497"/></clipPath></defs><g transform="matrix(1, 0, 0, 1, 80, 156)"><g clip-path="url(#c75227662f)"><g fill="#c98a0e" fill-opacity="1"><g transform="translate(1.000002, 397.229664)"><g><path d="M 23.765625 0 L 23.765625 -26.5625 L 146.8125 -185.953125 L 146.8125 -187.953125 L 26.765625 -187.953125 L 26.765625 -220.515625 L 192.140625 -220.515625 L 192.140625 -192.34375 L 72.109375 -34.546875 L 72.109375 -32.75 L 195.546875 -32.75 L 195.546875 0 Z M 23.765625 0 "/></g></g></g><g fill="#c98a0e" fill-opacity="1"><g transform="translate(187.792692, 397.229664)"><g><path d="M 63.515625 -79.296875 L 63.515625 -122.84375 L 69.109375 -122.84375 L 165.1875 -220.515625 L 209.53125 -220.515625 L 106.453125 -115.84375 L 102.671875 -115.84375 Z M 30.15625 0 L 30.15625 -297.609375 L 65.71875 -297.609375 L 65.71875 0 Z M 171.171875 0 L 85.484375 -108.0625 L 110.65625 -133.03125 L 216.515625 0 Z M 171.171875 0 "/></g></g></g><g fill="#c98a0e" fill-opacity="1"><g transform="translate(376.183245, 397.229664)"><g><path d="M 34.546875 0 L 34.546875 -297.609375 L 72.109375 -297.609375 L 72.109375 -33.15625 L 211.125 -33.15625 L 211.125 0 Z M 34.546875 0 "/></g></g></g><g fill="#c98a0e" fill-opacity="1"><g transform="translate(572.363415, 397.229664)"><g><path d="M 120.234375 4.796875 C 100.128906 4.796875 82.519531 0.0351562 67.40625 -9.484375 C 52.289062 -19.003906 40.503906 -32.351562 32.046875 -49.53125 C 23.597656 -66.707031 19.375 -86.550781 19.375 -109.0625 C 19.375 -131.957031 23.597656 -152.023438 32.046875 -169.265625 C 40.503906 -186.515625 52.289062 -199.898438 67.40625 -209.421875 C 82.519531 -218.941406 100.128906 -223.703125 120.234375 -223.703125 C 140.347656 -223.703125 157.992188 -218.941406 173.171875 -209.421875 C 188.347656 -199.898438 200.164062 -186.515625 208.625 -169.265625 C 217.082031 -152.023438 221.3125 -131.957031 221.3125 -109.0625 C 221.3125 -86.550781 217.082031 -66.707031 208.625 -49.53125 C 200.164062 -32.351562 188.347656 -19.003906 173.171875 -9.484375 C 157.992188 0.0351562 140.347656 4.796875 120.234375 4.796875 Z M 120.234375 -26.96875 C 134.890625 -26.96875 147.039062 -30.691406 156.6875 -38.140625 C 166.34375 -45.597656 173.535156 -55.550781 178.265625 -68 C 182.992188 -80.457031 185.359375 -94.144531 185.359375 -109.0625 C 185.359375 -124.101562 182.992188 -137.914062 178.265625 -150.5 C 173.535156 -163.082031 166.34375 -173.132812 156.6875 -180.65625 C 147.039062 -188.1875 134.890625 -191.953125 120.234375 -191.953125 C 105.722656 -191.953125 93.671875 -188.1875 84.078125 -180.65625 C 74.492188 -173.132812 67.304688 -163.113281 62.515625 -150.59375 C 57.722656 -138.082031 55.328125 -124.238281 55.328125 -109.0625 C 55.328125 -94.144531 57.722656 -80.457031 62.515625 -68 C 67.304688 -55.550781 74.460938 -45.597656 83.984375 -38.140625 C 93.503906 -30.691406 105.585938 -26.96875 120.234375 -26.96875 Z M 120.234375 -26.96875 "/></g></g></g><g fill="#c98a0e" fill-opacity="1"><g transform="translate(780.727409, 397.229664)"><g><path d="M 120.046875 87.890625 C 103.796875 87.890625 89.546875 85.722656 77.296875 81.390625 C 65.046875 77.066406 54.925781 71.140625 46.9375 63.609375 C 38.945312 56.085938 32.957031 47.601562 28.96875 38.15625 L 59.328125 23.5625 C 62.253906 28.625 66.113281 33.71875 70.90625 38.84375 C 75.695312 43.96875 82.050781 48.226562 89.96875 51.625 C 97.894531 55.019531 107.921875 56.71875 120.046875 56.71875 C 138.015625 56.71875 152.660156 52.320312 163.984375 43.53125 C 175.304688 34.75 180.96875 21.238281 180.96875 3 L 180.96875 -38.953125 L 178.359375 -38.953125 C 175.171875 -33.890625 171.046875 -28.460938 165.984375 -22.671875 C 160.921875 -16.878906 154.128906 -11.984375 145.609375 -7.984375 C 137.085938 -3.992188 126.234375 -2 113.046875 -2 C 95.078125 -2 79.035156 -6.289062 64.921875 -14.875 C 50.804688 -23.46875 39.6875 -35.921875 31.5625 -52.234375 C 23.4375 -68.546875 19.375 -88.148438 19.375 -111.046875 C 19.375 -133.816406 23.367188 -153.625 31.359375 -170.46875 C 39.347656 -187.320312 50.429688 -200.40625 64.609375 -209.71875 C 78.796875 -219.039062 95.144531 -223.703125 113.65625 -223.703125 C 126.832031 -223.703125 137.679688 -221.570312 146.203125 -217.3125 C 154.722656 -213.050781 161.582031 -207.925781 166.78125 -201.9375 C 171.976562 -195.945312 176.109375 -190.421875 179.171875 -185.359375 L 181.765625 -185.359375 L 181.765625 -220.515625 L 216.3125 -220.515625 L 216.3125 4.59375 C 216.3125 24.03125 212.015625 39.90625 203.421875 52.21875 C 194.835938 64.539062 183.253906 73.566406 168.671875 79.296875 C 154.097656 85.023438 137.890625 87.890625 120.046875 87.890625 Z M 118.84375 -33.5625 C 132.289062 -33.5625 143.707031 -36.6875 153.09375 -42.9375 C 162.488281 -49.195312 169.613281 -58.1875 174.46875 -69.90625 C 179.332031 -81.625 181.765625 -95.539062 181.765625 -111.65625 C 181.765625 -127.5 179.363281 -141.445312 174.5625 -153.5 C 169.769531 -165.550781 162.679688 -174.972656 153.296875 -181.765625 C 143.910156 -188.554688 132.425781 -191.953125 118.84375 -191.953125 C 105.125 -191.953125 93.535156 -188.453125 84.078125 -181.453125 C 74.628906 -174.460938 67.472656 -164.941406 62.609375 -152.890625 C 57.753906 -140.847656 55.328125 -127.101562 55.328125 -111.65625 C 55.328125 -95.9375 57.789062 -82.21875 62.71875 -70.5 C 67.644531 -58.789062 74.832031 -49.707031 84.28125 -43.25 C 93.738281 -36.789062 105.257812 -33.5625 118.84375 -33.5625 Z M 118.84375 -33.5625 "/></g></g></g><g fill="#c98a0e" fill-opacity="1"><g transform="translate(994.883731, 397.229664)"><g><path d="M 30.15625 0 L 30.15625 -220.515625 L 65.71875 -220.515625 L 65.71875 0 Z M 47.9375 -258.0625 C 41.28125 -258.0625 35.519531 -260.390625 30.65625 -265.046875 C 25.800781 -269.710938 23.375 -275.304688 23.375 -281.828125 C 23.375 -288.347656 25.800781 -293.90625 30.65625 -298.5 C 35.519531 -303.101562 41.28125 -305.40625 47.9375 -305.40625 C 54.726562 -305.40625 60.550781 -303.101562 65.40625 -298.5 C 70.269531 -293.90625 72.703125 -288.347656 72.703125 -281.828125 C 72.703125 -275.304688 70.269531 -269.710938 65.40625 -265.046875 C 60.550781 -260.390625 54.726562 -258.0625 47.9375 -258.0625 Z M 47.9375 -258.0625 "/></g></g></g><g fill="#c98a0e" fill-opacity="1"><g transform="translate(1058.440355, 397.229664)"><g><path d="M 65.71875 -131.421875 L 65.71875 0 L 30.15625 0 L 30.15625 -220.515625 L 64.3125 -220.515625 L 64.515625 -167.1875 L 58.515625 -167.1875 C 65.304688 -187.425781 74.960938 -201.90625 87.484375 -210.625 C 100.003906 -219.34375 114.71875 -223.703125 131.625 -223.703125 C 146.539062 -223.703125 159.691406 -220.601562 171.078125 -214.40625 C 182.460938 -208.21875 191.382812 -198.898438 197.84375 -186.453125 C 204.300781 -174.003906 207.53125 -158.328125 207.53125 -139.421875 L 207.53125 0 L 171.96875 0 L 171.96875 -136.625 C 171.96875 -153.9375 167.503906 -167.414062 158.578125 -177.0625 C 149.660156 -186.71875 137.414062 -191.546875 121.84375 -191.546875 C 111.1875 -191.546875 101.628906 -189.28125 93.171875 -184.75 C 84.722656 -180.226562 78.035156 -173.503906 73.109375 -164.578125 C 68.179688 -155.660156 65.71875 -144.609375 65.71875 -131.421875 Z M 65.71875 -131.421875 "/></g></g></g></g></g></svg>